<mxfile host="Electron" modified="2024-05-07T10:15:49.811Z" agent="Mozilla/5.0 (Windows NT 10.0; Win64; x64) AppleWebKit/537.36 (KHTML, like Gecko) draw.io/24.2.5 Chrome/120.0.6099.109 Electron/28.1.0 Safari/537.36" etag="fTFidzUi7ExKWP5G1ntp" version="24.2.5" type="device">
  <diagram id="7WY79w3Be1rOeNHEiTaz" name="Pagina-1">
    <mxGraphModel dx="1050" dy="621" grid="1" gridSize="10" guides="1" tooltips="1" connect="1" arrows="1" fold="1" page="1" pageScale="1" pageWidth="827" pageHeight="1169" math="0" shadow="0">
      <root>
        <mxCell id="0" />
        <mxCell id="1" parent="0" />
        <mxCell id="9Ccaq1GAdAuR4q0IgGuk-1" value="Oggetto" style="whiteSpace=wrap;html=1;align=center;" parent="1" vertex="1">
          <mxGeometry x="499.62000000000006" y="203.0254863813229" width="100" height="40.73929961089494" as="geometry" />
        </mxCell>
        <mxCell id="9Ccaq1GAdAuR4q0IgGuk-2" value="&lt;font style=&quot;font-size: 9px;&quot;&gt;Nome&lt;/font&gt;" style="text;html=1;align=center;verticalAlign=middle;whiteSpace=wrap;rounded=0;" parent="1" vertex="1">
          <mxGeometry x="497.4999999999999" y="167.66101167315168" width="40" height="22" as="geometry" />
        </mxCell>
        <mxCell id="9Ccaq1GAdAuR4q0IgGuk-3" value="&lt;font style=&quot;font-size: 9px;&quot;&gt;Provenienza&lt;/font&gt;" style="text;html=1;align=center;verticalAlign=middle;whiteSpace=wrap;rounded=0;" parent="1" vertex="1">
          <mxGeometry x="556" y="172.3510116731517" width="40" height="17.314202334630348" as="geometry" />
        </mxCell>
        <mxCell id="9Ccaq1GAdAuR4q0IgGuk-4" value="&lt;font style=&quot;font-size: 9px;&quot;&gt;Datazione&lt;/font&gt;" style="text;html=1;align=center;verticalAlign=middle;whiteSpace=wrap;rounded=0;" parent="1" vertex="1">
          <mxGeometry x="575" y="252.13000000000005" width="35" height="18" as="geometry" />
        </mxCell>
        <mxCell id="9Ccaq1GAdAuR4q0IgGuk-5" value="&lt;p style=&quot;line-height: 77%;&quot;&gt;&lt;font style=&quot;font-size: 9px;&quot;&gt;Significato Storico&lt;/font&gt;&lt;/p&gt;" style="text;html=1;align=center;verticalAlign=middle;whiteSpace=wrap;rounded=0;spacing=2;spacingTop=0;" parent="1" vertex="1">
          <mxGeometry x="489.99999999999994" y="259.09961089494163" width="55" height="17.314202334630348" as="geometry" />
        </mxCell>
        <mxCell id="9Ccaq1GAdAuR4q0IgGuk-6" style="edgeStyle=orthogonalEdgeStyle;rounded=0;orthogonalLoop=1;jettySize=auto;html=1;exitX=0.25;exitY=0;exitDx=0;exitDy=0;entryX=0.842;entryY=1.009;entryDx=0;entryDy=0;entryPerimeter=0;endArrow=oval;endFill=0;" parent="1" edge="1">
          <mxGeometry relative="1" as="geometry">
            <mxPoint x="570.0000000000001" y="202.74548638132293" as="sourcePoint" />
            <mxPoint x="573.6800000000001" y="189.66104182879369" as="targetPoint" />
          </mxGeometry>
        </mxCell>
        <mxCell id="9Ccaq1GAdAuR4q0IgGuk-7" style="edgeStyle=orthogonalEdgeStyle;rounded=0;orthogonalLoop=1;jettySize=auto;html=1;exitX=0.75;exitY=1;exitDx=0;exitDy=0;entryX=0.578;entryY=0.124;entryDx=0;entryDy=0;entryPerimeter=0;endArrow=oval;endFill=0;" parent="1" edge="1">
          <mxGeometry relative="1" as="geometry">
            <mxPoint x="554.9999999999999" y="254.56884824902724" as="targetPoint" />
            <mxPoint x="555.0000000000001" y="243.76478599221787" as="sourcePoint" />
          </mxGeometry>
        </mxCell>
        <mxCell id="9Ccaq1GAdAuR4q0IgGuk-8" value="&lt;font style=&quot;font-size: 9px;&quot;&gt;RaritÃ &lt;/font&gt;" style="text;html=1;align=center;verticalAlign=middle;whiteSpace=wrap;rounded=0;" parent="1" vertex="1">
          <mxGeometry x="537" y="252.13" width="40" height="17.314202334630348" as="geometry" />
        </mxCell>
        <mxCell id="9Ccaq1GAdAuR4q0IgGuk-9" style="edgeStyle=orthogonalEdgeStyle;rounded=0;orthogonalLoop=1;jettySize=auto;html=1;exitX=0.75;exitY=1;exitDx=0;exitDy=0;entryX=0.578;entryY=0.124;entryDx=0;entryDy=0;entryPerimeter=0;endArrow=oval;endFill=0;" parent="1" edge="1">
          <mxGeometry relative="1" as="geometry">
            <mxPoint x="517.3900000000001" y="243.75999999999996" as="sourcePoint" />
            <mxPoint x="517.51" y="254.2288482490272" as="targetPoint" />
          </mxGeometry>
        </mxCell>
        <mxCell id="9Ccaq1GAdAuR4q0IgGuk-10" style="edgeStyle=orthogonalEdgeStyle;rounded=0;orthogonalLoop=1;jettySize=auto;html=1;exitX=0.25;exitY=0;exitDx=0;exitDy=0;entryX=0.842;entryY=1.009;entryDx=0;entryDy=0;entryPerimeter=0;endArrow=oval;endFill=1;" parent="1" edge="1">
          <mxGeometry relative="1" as="geometry">
            <mxPoint x="515.5" y="203.02999999999997" as="sourcePoint" />
            <mxPoint x="519.5" y="190.02999999999997" as="targetPoint" />
          </mxGeometry>
        </mxCell>
        <mxCell id="9Ccaq1GAdAuR4q0IgGuk-12" value="&lt;span style=&quot;font-size: 8px;&quot;&gt;(0,N)&lt;/span&gt;" style="text;html=1;align=center;verticalAlign=middle;whiteSpace=wrap;rounded=1;strokeColor=none;glass=0;" parent="1" vertex="1">
          <mxGeometry x="200.00000000000006" y="203.95000000000005" width="22.5" height="6.75" as="geometry" />
        </mxCell>
        <mxCell id="9Ccaq1GAdAuR4q0IgGuk-13" value="&lt;font style=&quot;font-size: 8px;&quot;&gt;(0,N)&lt;/font&gt;" style="text;html=1;align=center;verticalAlign=middle;whiteSpace=wrap;rounded=1;strokeColor=none;glass=0;" parent="1" vertex="1">
          <mxGeometry x="461.5" y="201.50999999999993" width="22.5" height="6.75" as="geometry" />
        </mxCell>
        <mxCell id="9Ccaq1GAdAuR4q0IgGuk-14" value="" style="endArrow=none;html=1;rounded=0;entryX=1;entryY=0.5;entryDx=0;entryDy=0;exitX=0;exitY=0.5;exitDx=0;exitDy=0;" parent="1" source="9Ccaq1GAdAuR4q0IgGuk-15" edge="1">
          <mxGeometry width="50" height="50" relative="1" as="geometry">
            <mxPoint x="460.19000000000005" y="223.26" as="sourcePoint" />
            <mxPoint x="192" y="223.26" as="targetPoint" />
          </mxGeometry>
        </mxCell>
        <mxCell id="9Ccaq1GAdAuR4q0IgGuk-15" value="V-I" style="shape=rhombus;perimeter=rhombusPerimeter;whiteSpace=wrap;html=1;align=center;" parent="1" vertex="1">
          <mxGeometry x="210" y="202.08" width="73.56" height="42.36" as="geometry" />
        </mxCell>
        <mxCell id="9Ccaq1GAdAuR4q0IgGuk-29" value="" style="endArrow=none;html=1;rounded=0;entryX=1;entryY=0.5;entryDx=0;entryDy=0;exitX=0;exitY=0.5;exitDx=0;exitDy=0;" parent="1" source="9Ccaq1GAdAuR4q0IgGuk-28" target="9Ccaq1GAdAuR4q0IgGuk-15" edge="1">
          <mxGeometry width="50" height="50" relative="1" as="geometry">
            <mxPoint x="460.19000000000005" y="223.26" as="sourcePoint" />
            <mxPoint x="192" y="223.26" as="targetPoint" />
          </mxGeometry>
        </mxCell>
        <mxCell id="9Ccaq1GAdAuR4q0IgGuk-30" value="" style="endArrow=none;html=1;rounded=0;entryX=1;entryY=0.5;entryDx=0;entryDy=0;exitX=0;exitY=0.5;exitDx=0;exitDy=0;" parent="1" source="9Ccaq1GAdAuR4q0IgGuk-21" target="9Ccaq1GAdAuR4q0IgGuk-28" edge="1">
          <mxGeometry width="50" height="50" relative="1" as="geometry">
            <mxPoint x="460.19000000000005" y="223.26" as="sourcePoint" />
            <mxPoint x="276" y="223" as="targetPoint" />
          </mxGeometry>
        </mxCell>
        <mxCell id="9Ccaq1GAdAuR4q0IgGuk-28" value="Interazione" style="whiteSpace=wrap;html=1;align=center;" parent="1" vertex="1">
          <mxGeometry x="300" y="210.26" width="90.38" height="26.28" as="geometry" />
        </mxCell>
        <mxCell id="9Ccaq1GAdAuR4q0IgGuk-32" style="edgeStyle=orthogonalEdgeStyle;rounded=0;orthogonalLoop=1;jettySize=auto;html=1;exitX=0.75;exitY=1;exitDx=0;exitDy=0;entryX=0.578;entryY=0.124;entryDx=0;entryDy=0;entryPerimeter=0;endArrow=oval;endFill=0;" parent="1" edge="1">
          <mxGeometry relative="1" as="geometry">
            <mxPoint x="589.9999999999999" y="254.56884824902727" as="targetPoint" />
            <mxPoint x="590.0000000000001" y="243.76478599221787" as="sourcePoint" />
          </mxGeometry>
        </mxCell>
        <mxCell id="9Ccaq1GAdAuR4q0IgGuk-33" value="" style="endArrow=none;html=1;rounded=0;entryX=1;entryY=0.5;entryDx=0;entryDy=0;exitX=0;exitY=0.5;exitDx=0;exitDy=0;" parent="1" source="9Ccaq1GAdAuR4q0IgGuk-1" target="9Ccaq1GAdAuR4q0IgGuk-21" edge="1">
          <mxGeometry width="50" height="50" relative="1" as="geometry">
            <mxPoint x="500" y="223" as="sourcePoint" />
            <mxPoint x="380" y="223" as="targetPoint" />
          </mxGeometry>
        </mxCell>
        <mxCell id="9Ccaq1GAdAuR4q0IgGuk-21" value="I-O" style="shape=rhombus;perimeter=rhombusPerimeter;whiteSpace=wrap;html=1;align=center;" parent="1" vertex="1">
          <mxGeometry x="414" y="203.94999999999996" width="70" height="39.81" as="geometry" />
        </mxCell>
        <mxCell id="9Ccaq1GAdAuR4q0IgGuk-39" value="&lt;span style=&quot;font-size: 8px;&quot;&gt;(1,1)&lt;/span&gt;" style="text;html=1;align=center;verticalAlign=middle;whiteSpace=wrap;rounded=1;strokeColor=none;glass=0;" parent="1" vertex="1">
          <mxGeometry x="270.00000000000006" y="203.95000000000005" width="22.5" height="6.75" as="geometry" />
        </mxCell>
        <mxCell id="9Ccaq1GAdAuR4q0IgGuk-40" value="&lt;span style=&quot;font-size: 8px;&quot;&gt;(1,1)&lt;/span&gt;" style="text;html=1;align=center;verticalAlign=middle;whiteSpace=wrap;rounded=1;strokeColor=none;glass=0;" parent="1" vertex="1">
          <mxGeometry x="402.00000000000006" y="203.03000000000006" width="22.5" height="6.75" as="geometry" />
        </mxCell>
        <mxCell id="9Ccaq1GAdAuR4q0IgGuk-41" style="edgeStyle=orthogonalEdgeStyle;rounded=0;orthogonalLoop=1;jettySize=auto;html=1;exitX=0.25;exitY=0;exitDx=0;exitDy=0;entryX=0.842;entryY=1.009;entryDx=0;entryDy=0;entryPerimeter=0;endArrow=oval;endFill=1;" parent="1" edge="1">
          <mxGeometry relative="1" as="geometry">
            <mxPoint x="343.69" y="210.26" as="sourcePoint" />
            <mxPoint x="346.69" y="197.26" as="targetPoint" />
          </mxGeometry>
        </mxCell>
        <mxCell id="9Ccaq1GAdAuR4q0IgGuk-42" value="&lt;font style=&quot;font-size: 9px;&quot;&gt;Codice&lt;/font&gt;" style="text;html=1;align=center;verticalAlign=middle;whiteSpace=wrap;rounded=0;" parent="1" vertex="1">
          <mxGeometry x="325.19000000000005" y="177.6010116731517" width="40" height="17.314202334630348" as="geometry" />
        </mxCell>
        <mxCell id="np0D357eGjO3jjXT5r6t-1" value="&lt;font style=&quot;font-size: 8px;&quot;&gt;Ora&lt;/font&gt;" style="text;html=1;align=center;verticalAlign=middle;whiteSpace=wrap;rounded=1;strokeColor=none;glass=0;" parent="1" vertex="1">
          <mxGeometry x="51.419999999999845" y="176.09000000000003" width="50" height="15" as="geometry" />
        </mxCell>
        <mxCell id="np0D357eGjO3jjXT5r6t-2" value="&lt;font style=&quot;font-size: 8px;&quot;&gt;Ora Fine&lt;/font&gt;" style="text;html=1;align=center;verticalAlign=middle;whiteSpace=wrap;rounded=1;strokeColor=none;glass=0;" parent="1" vertex="1">
          <mxGeometry x="167.9999999999999" y="257.41" width="42" height="19" as="geometry" />
        </mxCell>
        <mxCell id="np0D357eGjO3jjXT5r6t-3" value="&lt;font style=&quot;font-size: 8px;&quot;&gt;Data&lt;/font&gt;" style="text;html=1;align=center;verticalAlign=middle;whiteSpace=wrap;rounded=1;strokeColor=none;glass=0;" parent="1" vertex="1">
          <mxGeometry x="51.419999999999845" y="163.53000000000003" width="50" height="15" as="geometry" />
        </mxCell>
        <mxCell id="np0D357eGjO3jjXT5r6t-4" style="edgeStyle=orthogonalEdgeStyle;rounded=0;orthogonalLoop=1;jettySize=auto;html=1;exitX=0;exitY=0;exitDx=0;exitDy=0;endArrow=oval;endFill=0;" parent="1" edge="1">
          <mxGeometry relative="1" as="geometry">
            <mxPoint x="89.41999999999996" y="172.89" as="targetPoint" />
            <mxPoint x="108.80000000000007" y="172.89" as="sourcePoint" />
            <Array as="points" />
          </mxGeometry>
        </mxCell>
        <mxCell id="np0D357eGjO3jjXT5r6t-5" style="edgeStyle=orthogonalEdgeStyle;rounded=0;orthogonalLoop=1;jettySize=auto;html=1;endArrow=oval;endFill=0;" parent="1" edge="1">
          <mxGeometry relative="1" as="geometry">
            <mxPoint x="89.41999999999996" y="186.01" as="targetPoint" />
            <mxPoint x="109.41999999999996" y="186.01" as="sourcePoint" />
            <Array as="points" />
          </mxGeometry>
        </mxCell>
        <mxCell id="np0D357eGjO3jjXT5r6t-6" value="" style="endArrow=none;html=1;rounded=0;entryX=0.551;entryY=1.003;entryDx=0;entryDy=0;entryPerimeter=0;" parent="1" edge="1">
          <mxGeometry width="50" height="50" relative="1" as="geometry">
            <mxPoint x="118.91999999999996" y="211.63" as="sourcePoint" />
            <mxPoint x="118.91999999999996" y="188.57000000000005" as="targetPoint" />
          </mxGeometry>
        </mxCell>
        <mxCell id="np0D357eGjO3jjXT5r6t-7" value="&lt;p style=&quot;line-height: 110%;&quot;&gt;&lt;font style=&quot;font-size: 7px;&quot;&gt;DataVisita&lt;/font&gt;&lt;/p&gt;" style="ellipse;whiteSpace=wrap;html=1;" parent="1" vertex="1">
          <mxGeometry x="101.41999999999996" y="168.51" width="36.12" height="20" as="geometry" />
        </mxCell>
        <mxCell id="np0D357eGjO3jjXT5r6t-8" style="edgeStyle=orthogonalEdgeStyle;rounded=0;orthogonalLoop=1;jettySize=auto;html=1;exitX=1;exitY=0.5;exitDx=0;exitDy=0;endArrow=oval;endFill=0;" parent="1" edge="1">
          <mxGeometry relative="1" as="geometry">
            <mxPoint x="185.9799999999999" y="257.46000000000004" as="targetPoint" />
            <mxPoint x="185.8599999999998" y="237.47500000000002" as="sourcePoint" />
            <Array as="points">
              <mxPoint x="185.9799999999999" y="257.46000000000004" />
            </Array>
          </mxGeometry>
        </mxCell>
        <mxCell id="np0D357eGjO3jjXT5r6t-9" value="&lt;font style=&quot;font-size: 8px;&quot;&gt;Durata&lt;/font&gt;" style="text;html=1;align=center;verticalAlign=middle;whiteSpace=wrap;rounded=1;strokeColor=none;glass=0;" parent="1" vertex="1">
          <mxGeometry x="99.49999999999989" y="253.51000000000005" width="50" height="17" as="geometry" />
        </mxCell>
        <mxCell id="np0D357eGjO3jjXT5r6t-10" style="edgeStyle=orthogonalEdgeStyle;rounded=0;orthogonalLoop=1;jettySize=auto;html=1;exitX=1;exitY=0.5;exitDx=0;exitDy=0;endArrow=oval;endFill=0;" parent="1" edge="1">
          <mxGeometry relative="1" as="geometry">
            <mxPoint x="123.38" y="256.55000000000007" as="targetPoint" />
            <mxPoint x="122.97000000000014" y="236.13" as="sourcePoint" />
            <Array as="points">
              <mxPoint x="122.97000000000014" y="256.13" />
            </Array>
          </mxGeometry>
        </mxCell>
        <mxCell id="np0D357eGjO3jjXT5r6t-11" style="edgeStyle=orthogonalEdgeStyle;rounded=0;orthogonalLoop=1;jettySize=auto;html=1;exitX=0.25;exitY=0;exitDx=0;exitDy=0;entryX=0.842;entryY=1.009;entryDx=0;entryDy=0;entryPerimeter=0;endArrow=oval;endFill=1;" parent="1" edge="1">
          <mxGeometry relative="1" as="geometry">
            <mxPoint x="149.54999999999984" y="211.19000000000005" as="sourcePoint" />
            <mxPoint x="152.54999999999984" y="198.19000000000005" as="targetPoint" />
          </mxGeometry>
        </mxCell>
        <mxCell id="np0D357eGjO3jjXT5r6t-12" value="&lt;font style=&quot;font-size: 9px;&quot;&gt;Codice&lt;/font&gt;" style="text;html=1;align=center;verticalAlign=middle;whiteSpace=wrap;rounded=0;" parent="1" vertex="1">
          <mxGeometry x="131.04999999999984" y="178.53101167315174" width="40" height="17.314202334630348" as="geometry" />
        </mxCell>
        <mxCell id="np0D357eGjO3jjXT5r6t-13" value="Visita" style="whiteSpace=wrap;html=1;align=center;" parent="1" vertex="1">
          <mxGeometry x="105.86000000000001" y="211.19000000000005" width="90.38" height="26.28" as="geometry" />
        </mxCell>
      </root>
    </mxGraphModel>
  </diagram>
</mxfile>
